<svg width="123" height="23" viewBox="0 0 123 23" fill="none" xmlns="http://www.w3.org/2000/svg">
<rect x="62" y="4" width="58.9134" height="17" fill="#FF0000"/>
<path d="M11.1562 12.043L7.80788 12.1325C7.77308 11.8938 7.67862 11.6825 7.5245 11.4986C7.37038 11.3097 7.16903 11.163 6.92045 11.0586C6.67685 10.9492 6.39347 10.8945 6.07031 10.8945C5.64773 10.8945 5.28729 10.979 4.98899 11.1481C4.69567 11.3171 4.55149 11.5458 4.55646 11.8342C4.55149 12.0579 4.64098 12.2518 4.82493 12.4158C5.01385 12.5799 5.34943 12.7116 5.83168 12.8111L8.03906 13.2287C9.18253 13.4474 10.0327 13.8104 10.5895 14.3175C11.1513 14.8246 11.4347 15.4957 11.4396 16.331C11.4347 17.1165 11.201 17.8001 10.7386 18.3817C10.2812 18.9634 9.65483 19.4158 8.85938 19.739C8.06392 20.0572 7.15412 20.2163 6.12997 20.2163C4.49432 20.2163 3.20419 19.8807 2.25959 19.2095C1.31996 18.5334 0.783026 17.6286 0.648793 16.495L4.25071 16.4055C4.33026 16.8232 4.53658 17.1413 4.86967 17.3601C5.20277 17.5788 5.62784 17.6882 6.14489 17.6882C6.61222 17.6882 6.99254 17.6012 7.28587 17.4272C7.57919 17.2532 7.72834 17.022 7.73331 16.7337C7.72834 16.4751 7.61399 16.2688 7.39027 16.1147C7.16655 15.9556 6.81605 15.8313 6.33878 15.7418L4.3402 15.3615C3.19176 15.1527 2.33665 14.7674 1.77486 14.2056C1.21307 13.6388 0.934659 12.918 0.939631 12.043C0.934659 11.2773 1.13849 10.6236 1.55114 10.0817C1.96378 9.5348 2.55043 9.11719 3.31108 8.82883C4.07173 8.54048 4.96911 8.39631 6.0032 8.39631C7.55433 8.39631 8.77734 8.72195 9.67223 9.37322C10.5671 10.0195 11.0618 10.9094 11.1562 12.043ZM13.235 20V8.54545H16.7027V10.6484H16.8295C17.0681 9.95241 17.4708 9.40305 18.0376 9.00035C18.6043 8.59766 19.2805 8.39631 20.066 8.39631C20.8614 8.39631 21.5425 8.60014 22.1093 9.00781C22.676 9.41548 23.0365 9.96236 23.1906 10.6484H23.3099C23.5237 9.96733 23.9413 9.42294 24.5628 9.01527C25.1842 8.60263 25.9175 8.39631 26.7627 8.39631C27.8465 8.39631 28.7265 8.74432 29.4026 9.44034C30.0787 10.1314 30.4168 11.081 30.4168 12.2891V20H26.7702V13.1243C26.7702 12.5526 26.6235 12.1175 26.3302 11.8192C26.0368 11.516 25.6565 11.3643 25.1892 11.3643C24.6871 11.3643 24.2918 11.5284 24.0035 11.8565C23.7201 12.1797 23.5784 12.6147 23.5784 13.1616V20H20.0734V13.087C20.0734 12.555 19.9292 12.1349 19.6409 11.8267C19.3525 11.5185 18.9722 11.3643 18.4999 11.3643C18.1817 11.3643 17.9008 11.4414 17.6572 11.5955C17.4136 11.7447 17.2222 11.9585 17.083 12.2369C16.9488 12.5153 16.8817 12.8434 16.8817 13.2212V20H13.235ZM35.9055 20.1939C35.1746 20.1939 34.5258 20.0721 33.9591 19.8285C33.3973 19.5799 32.9523 19.207 32.6242 18.7099C32.301 18.2077 32.1395 17.5788 32.1395 16.8232C32.1395 16.1868 32.2513 15.6499 32.4751 15.2124C32.6988 14.7749 33.007 14.4194 33.3998 14.146C33.7925 13.8725 34.2449 13.6662 34.757 13.527C35.2691 13.3828 35.816 13.2859 36.3976 13.2362C37.0489 13.1765 37.5734 13.1143 37.9711 13.0497C38.3689 12.9801 38.6572 12.8832 38.8362 12.7589C39.0202 12.6296 39.1121 12.4482 39.1121 12.2145V12.1772C39.1121 11.7944 38.9804 11.4986 38.7169 11.2898C38.4534 11.081 38.0979 10.9766 37.6505 10.9766C37.1682 10.9766 36.7805 11.081 36.4871 11.2898C36.1938 11.4986 36.0074 11.7869 35.9278 12.1548L32.5645 12.0355C32.664 11.3395 32.92 10.718 33.3327 10.1712C33.7503 9.61932 34.322 9.18679 35.0479 8.87358C35.7787 8.5554 36.6562 8.39631 37.6803 8.39631C38.4111 8.39631 39.0848 8.48331 39.7013 8.65731C40.3177 8.82635 40.8547 9.07493 41.3121 9.40305C41.7694 9.72621 42.1224 10.1239 42.371 10.5962C42.6246 11.0685 42.7513 11.608 42.7513 12.2145V20H39.3209V18.4041H39.2314C39.0276 18.7919 38.7666 19.12 38.4484 19.3885C38.1352 19.657 37.7648 19.8583 37.3373 19.9925C36.9147 20.1268 36.4374 20.1939 35.9055 20.1939ZM37.0315 17.8075C37.4243 17.8075 37.7773 17.728 38.0905 17.5689C38.4086 17.4098 38.6622 17.1911 38.8511 16.9126C39.04 16.6293 39.1345 16.3011 39.1345 15.9283V14.8395C39.0301 14.8942 38.9033 14.9439 38.7542 14.9886C38.61 15.0334 38.4509 15.0756 38.2769 15.1154C38.1029 15.1552 37.9239 15.19 37.74 15.2198C37.556 15.2496 37.3795 15.277 37.2105 15.3018C36.8675 15.3565 36.5741 15.4411 36.3305 15.5554C36.0919 15.6697 35.9079 15.8189 35.7787 16.0028C35.6544 16.1818 35.5922 16.3956 35.5922 16.6442C35.5922 17.022 35.7265 17.3104 35.9949 17.5092C36.2684 17.7081 36.6139 17.8075 37.0315 17.8075ZM44.9811 20V8.54545H48.5233V10.6335H48.6427C48.8515 9.87784 49.192 9.31605 49.6643 8.94815C50.1366 8.57528 50.686 8.38885 51.3124 8.38885C51.4814 8.38885 51.6555 8.40128 51.8344 8.42614C52.0134 8.44602 52.18 8.47834 52.3341 8.52308V11.6925C52.1601 11.6328 51.9314 11.5856 51.648 11.5508C51.3696 11.516 51.121 11.4986 50.9023 11.4986C50.4697 11.4986 50.0795 11.5955 49.7314 11.7894C49.3884 11.9783 49.1175 12.2443 48.9186 12.5874C48.7247 12.9254 48.6278 13.3232 48.6278 13.7805V20H44.9811ZM60.8187 8.54545V11.2301H53.5925V8.54545H60.8187ZM55.1064 5.80114H58.753V16.3981C58.753 16.6218 58.7878 16.8033 58.8574 16.9425C58.932 17.0767 59.0389 17.1737 59.1781 17.2333C59.3173 17.288 59.4838 17.3153 59.6777 17.3153C59.8169 17.3153 59.9636 17.3029 60.1177 17.2781C60.2768 17.2482 60.3961 17.2234 60.4757 17.2035L61.0275 19.8359C60.8535 19.8857 60.6074 19.9478 60.2892 20.0224C59.976 20.0969 59.6007 20.1442 59.1632 20.1641C58.3081 20.2038 57.5748 20.1044 56.9632 19.8658C56.3567 19.6222 55.8919 19.2443 55.5687 18.7322C55.2505 18.2202 55.0964 17.5763 55.1064 16.8008V5.80114ZM66.5721 13.4673V20H62.9254V4.72727H66.4528V10.6484H66.5795C66.8381 9.94247 67.2607 9.39062 67.8473 8.9929C68.4389 8.59517 69.1623 8.39631 70.0174 8.39631C70.8228 8.39631 71.5238 8.57528 72.1204 8.93324C72.717 9.28622 73.1793 9.78587 73.5075 10.4322C73.8406 11.0785 74.0046 11.8342 73.9996 12.6992V20H70.353V13.4151C70.358 12.7788 70.1989 12.2816 69.8757 11.9237C69.5526 11.5657 69.0977 11.3867 68.511 11.3867C68.1282 11.3867 67.7901 11.4712 67.4968 11.6403C67.2085 11.8043 66.9822 12.0405 66.8182 12.3487C66.6591 12.657 66.5771 13.0298 66.5721 13.4673ZM81.623 20.2163C80.4198 20.2163 79.3857 19.9702 78.5207 19.478C77.6606 18.9808 76.9969 18.2898 76.5296 17.4048C76.0672 16.5149 75.836 15.4833 75.836 14.31C75.836 13.1317 76.0672 12.1001 76.5296 11.2152C76.9969 10.3253 77.6606 9.63423 78.5207 9.14204C79.3857 8.64489 80.4198 8.39631 81.623 8.39631C82.8261 8.39631 83.8577 8.64489 84.7178 9.14204C85.5828 9.63423 86.2465 10.3253 86.7089 11.2152C87.1762 12.1001 87.4099 13.1317 87.4099 14.31C87.4099 15.4833 87.1762 16.5149 86.7089 17.4048C86.2465 18.2898 85.5828 18.9808 84.7178 19.478C83.8577 19.9702 82.8261 20.2163 81.623 20.2163ZM81.6453 17.4645C82.0828 17.4645 82.4532 17.3303 82.7565 17.0618C83.0597 16.7933 83.2909 16.4205 83.45 15.9432C83.6141 15.4659 83.6961 14.9141 83.6961 14.2876C83.6961 13.6513 83.6141 13.0945 83.45 12.6172C83.2909 12.1399 83.0597 11.767 82.7565 11.4986C82.4532 11.2301 82.0828 11.0959 81.6453 11.0959C81.1929 11.0959 80.8101 11.2301 80.4969 11.4986C80.1887 11.767 79.9525 12.1399 79.7884 12.6172C79.6294 13.0945 79.5498 13.6513 79.5498 14.2876C79.5498 14.9141 79.6294 15.4659 79.7884 15.9432C79.9525 16.4205 80.1887 16.7933 80.4969 17.0618C80.8101 17.3303 81.1929 17.4645 81.6453 17.4645ZM89.278 20V8.54545H92.7457V10.6484H92.8724C93.1111 9.95241 93.5138 9.40305 94.0805 9.00035C94.6473 8.59766 95.3234 8.39631 96.1089 8.39631C96.9044 8.39631 97.5855 8.60014 98.1523 9.00781C98.719 9.41548 99.0795 9.96236 99.2336 10.6484H99.3529C99.5667 9.96733 99.9843 9.42294 100.606 9.01527C101.227 8.60263 101.96 8.39631 102.806 8.39631C103.889 8.39631 104.769 8.74432 105.446 9.44034C106.122 10.1314 106.46 11.081 106.46 12.2891V20H102.813V13.1243C102.813 12.5526 102.666 12.1175 102.373 11.8192C102.08 11.516 101.699 11.3643 101.232 11.3643C100.73 11.3643 100.335 11.5284 100.046 11.8565C99.7631 12.1797 99.6214 12.6147 99.6214 13.1616V20H96.1164V13.087C96.1164 12.555 95.9722 12.1349 95.6839 11.8267C95.3955 11.5185 95.0152 11.3643 94.5429 11.3643C94.2247 11.3643 93.9438 11.4414 93.7002 11.5955C93.4566 11.7447 93.2652 11.9585 93.126 12.2369C92.9917 12.5153 92.9246 12.8434 92.9246 13.2212V20H89.278ZM114.074 20.2163C112.876 20.2163 111.842 19.9801 110.972 19.5078C110.106 19.0305 109.44 18.3519 108.973 17.4719C108.511 16.587 108.279 15.5355 108.279 14.3175C108.279 13.1342 108.513 12.1001 108.98 11.2152C109.448 10.3253 110.106 9.63423 110.957 9.14204C111.807 8.64489 112.809 8.39631 113.962 8.39631C114.777 8.39631 115.523 8.52308 116.199 8.77663C116.875 9.03018 117.459 9.40554 117.952 9.9027C118.444 10.3999 118.827 11.0138 119.1 11.7447C119.373 12.4705 119.51 13.3033 119.51 14.2429V15.1527H109.555V13.0348H116.117C116.112 12.647 116.02 12.3015 115.841 11.9982C115.662 11.695 115.416 11.4588 115.103 11.2898C114.795 11.1158 114.439 11.0288 114.036 11.0288C113.629 11.0288 113.263 11.1207 112.94 11.3047C112.617 11.4837 112.361 11.7298 112.172 12.043C111.983 12.3512 111.884 12.7017 111.874 13.0945V15.2496C111.874 15.717 111.966 16.1271 112.15 16.4801C112.334 16.8281 112.595 17.0991 112.933 17.293C113.271 17.4869 113.674 17.5838 114.141 17.5838C114.464 17.5838 114.757 17.5391 115.021 17.4496C115.284 17.3601 115.511 17.2283 115.699 17.0543C115.888 16.8803 116.03 16.6665 116.125 16.413L119.473 16.5099C119.334 17.2607 119.028 17.9144 118.556 18.4712C118.088 19.0231 117.474 19.4531 116.714 19.7614C115.953 20.0646 115.073 20.2163 114.074 20.2163Z" fill="white"/>
</svg>
